<?xml version="1.0" encoding="UTF-8"?>
<svg id="Layer_1" data-name="Layer 1" xmlns="http://www.w3.org/2000/svg" width="1816.48" height="434" viewBox="0 0 1816.48 434">
  <defs>
    <style>
      .cls-1 {
        fill: #fff;
      }
    </style>
  </defs>
  <path class="cls-1" d="m202.5,5.5c74,0,144.5,57,144.5,143.5s-59.5,190-216,190H0L73.5,5.5h129Zm-58.5,271c80.5,0,129-56.5,129-123,0-48.5-34.5-85.5-84-85.5h-58l-46,208.5h59Z"/>
  <path class="cls-1" d="m649,339l53.5-244-147.5,244h-31l-40.5-244-53.5,244h-71L432.5,5.5h97l34,212L691.5,5.5h102.5l-73.5,333.5h-71.5Z"/>
  <path class="cls-1" d="m933.99,434V0h115v49.5h-61v335h61v49.5h-115Z"/>
  <path class="cls-1" d="m1227.99,339v-61h-159.5v-67L1194.99,5.5h119.5v197h40.5v75.5h-40.5v61h-86.5Zm0-258.5l-76,122h76v-122Z"/>
  <path class="cls-1" d="m1591.49,339l-87.5-125.5-22.5,28v97.5h-86V5.5h86v137L1583.99,5.5h106l-129.5,156,136.5,177.5h-105.5Z"/>
  <path class="cls-1" d="m1701.48,434v-49.5h61V49.5h-61V0h115v434h-115Z"/>
</svg>