<?xml version="1.0" encoding="utf-8"?>
<!-- Generator: Adobe Illustrator 27.1.1, SVG Export Plug-In . SVG Version: 6.00 Build 0)  -->
<svg version="1.1" id="Layer_1" xmlns="http://www.w3.org/2000/svg" xmlns:xlink="http://www.w3.org/1999/xlink" x="0px" y="0px"
	 viewBox="0 0 2000 1000" style="enable-background:new 0 0 2000 1000;" xml:space="preserve">
<style type="text/css">
	.st0{fill:none;}
	.st1{display:none;}
	.st2{display:inline;fill:none;}
	.st3{display:inline;fill:#FFFFFF;}
</style>
<g>
	<rect x="-0.5" y="261.9" class="st0" width="2000.5" height="476.5"/>
	<path d="M49.1,774.3V253.5h138v59.4h-73.2v402h73.2v59.4H49.1z"/>
	<path d="M265.1,660.3v-330h138c109.8,0,180.6,65.4,180.6,165.6c0,99-70.8,164.4-180,164.4H265.1z M403.7,399.3h-59.4v192h58.8
		c66,0,99.6-43.8,99.6-95.4C502.7,441.9,472.7,399.3,403.7,399.3z"/>
	<path d="M940.1,660.3V441.9l-91.8,218.4h-36.6l-91.8-218.4v218.4h-79.2v-330h105.6l83.4,200.4l83.4-200.4h106.2v330H940.1z"/>
	<path d="M1362.7,643.3V734h-89.5v-90.7h-201v-71.2l167-258.3h123.5v250.7h54.2v78.8H1362.7z M1273.2,393.2l-113.4,171.4h113.4
		V393.2z"/>
	<path d="M1675.6,660.3l-102-129l-24,27.6v101.4h-79.2v-330h79.2v139.8l117-139.8h96l-138,155.4l147,174.6H1675.6z"/>
	<path d="M1813,774.3v-59.4h73.2v-402H1813v-59.4h138v520.8H1813z"/>
</g>
<g id="_x5B_DM4K_x5D__-_white" class="st1">
	<rect x="-0.5" y="261.9" class="st2" width="2000.5" height="476.5"/>
	<path class="st3" d="M49.1,774.3V253.5h138v59.4h-73.2v402h73.2v59.4H49.1z"/>
	<path class="st3" d="M265.1,660.3v-330h138c109.8,0,180.6,65.4,180.6,165.6c0,99-70.8,164.4-180,164.4H265.1z M403.7,399.3h-59.4
		v192h58.8c66,0,99.6-43.8,99.6-95.4C502.7,441.9,472.7,399.3,403.7,399.3z"/>
	<path class="st3" d="M940.1,660.3V441.9l-91.8,218.4h-36.6l-91.8-218.4v218.4h-79.2v-330h105.6l83.4,200.4l83.4-200.4h106.2v330
		H940.1z"/>
	<path class="st3" d="M1362.7,643.3V734h-89.5v-90.7h-201v-71.2l167-258.3h123.5v250.7h54.2v78.8H1362.7z M1273.2,393.2
		l-113.4,171.4h113.4V393.2z"/>
	<path class="st3" d="M1675.6,660.3l-102-129l-24,27.6v101.4h-79.2v-330h79.2v139.8l117-139.8h96l-138,155.4l147,174.6H1675.6z"/>
	<path class="st3" d="M1813,774.3v-59.4h73.2v-402H1813v-59.4h138v520.8H1813z"/>
</g>
</svg>
