<?xml version="1.0" encoding="UTF-8"?>
<svg id="Layer_1" data-name="Layer 1" xmlns="http://www.w3.org/2000/svg" width="2000" height="1000" viewBox="0 0 2000 1000">
  <path d="m284.76,333.25c74,0,144.5,57,144.5,143.5s-59.5,190-216,190H82.26l73.5-333.5h129Zm-58.5,271c80.5,0,129-56.5,129-123,0-48.5-34.5-85.5-84-85.5h-58l-46,208.5h59Z"/>
  <path d="m731.26,666.75l53.5-244-147.5,244h-31l-40.5-244-53.5,244h-71l73.5-333.5h97l34,212,128-212h102.5l-73.5,333.5h-71.5Z"/>
  <path d="m1016.25,761.75v-434h115v49.5h-61v335h61v49.5h-115Z"/>
  <path d="m1310.25,666.75v-61h-159.5v-67l126.5-205.5h119.5v197h40.5v75.5h-40.5v61h-86.5Zm0-258.5l-76,122h76v-122Z"/>
  <path d="m1673.75,666.75l-87.5-125.5-22.5,28v97.5h-86v-333.5h86v137l102.5-137h106l-129.5,156,136.5,177.5h-105.5Z"/>
  <path d="m1783.74,761.75v-49.5h61v-335h-61v-49.5h115v434h-115Z"/>
</svg>