<?xml version="1.0" encoding="utf-8"?>
<!-- Generator: Adobe Illustrator 27.1.1, SVG Export Plug-In . SVG Version: 6.00 Build 0)  -->
<svg version="1.1" xmlns="http://www.w3.org/2000/svg" xmlns:xlink="http://www.w3.org/1999/xlink" x="0px" y="0px"
	 viewBox="0 0 1000 1000" style="enable-background:new 0 0 1000 1000;" xml:space="preserve">
<style type="text/css">
	.st0{display:none;}
	.st1{display:inline;}
	.st2{fill:none;stroke:#000000;stroke-width:20;stroke-miterlimit:10;}
	.st3{stroke:#FFFFFF;stroke-width:20;stroke-miterlimit:10;}
	.st4{display:inline;fill:none;stroke:#000000;stroke-width:20;stroke-miterlimit:10;}
	.st5{display:none;stroke:#000000;stroke-width:20;stroke-miterlimit:10;}
	.st6{stroke:#000000;stroke-width:20;stroke-miterlimit:10;}
	.st7{display:none;fill:#FFFFFF;}
	.st8{display:inline;fill:none;}
	.st9{display:inline;fill:none;stroke:#000000;stroke-miterlimit:10;}
</style>
<g id="Layer_3" class="st0">
	<g class="st1">
		<rect class="st2" width="1010" height="1010"/>
		<line class="st2" x1="0" y1="841.7" x2="1010" y2="841.7"/>
		<line class="st2" x1="0" y1="673.3" x2="1010" y2="673.3"/>
		<line class="st2" x1="0" y1="505" x2="1010" y2="505"/>
		<line class="st2" x1="0" y1="336.7" x2="1010" y2="336.7"/>
		<line class="st2" x1="0" y1="168.3" x2="1010" y2="168.3"/>
		<line class="st2" x1="841.7" y1="0" x2="841.7" y2="1010"/>
		<line class="st2" x1="673.3" y1="0" x2="673.3" y2="1010"/>
		<line class="st2" x1="505" y1="0" x2="505" y2="1010"/>
		<line class="st2" x1="336.7" y1="0" x2="336.7" y2="1010"/>
		<line class="st2" x1="168.3" y1="0" x2="168.3" y2="1010"/>
	</g>
</g>
<g id="Sun" class="st0">
	<g class="st1">
		<circle class="st3" cx="500" cy="500" r="208"/>
		<circle class="st3" cx="500" cy="500" r="104"/>
	</g>
	<line class="st4" x1="500" y1="726.5" x2="500" y2="968"/>
	<line class="st4" x1="665.2" y1="665.2" x2="830.9" y2="830.9"/>
	<line class="st4" x1="733.4" y1="500" x2="968" y2="500"/>
	<line class="st4" x1="665.2" y1="334.8" x2="830.9" y2="169.1"/>
	<line class="st4" x1="500" y1="265.4" x2="500" y2="32"/>
	<line class="st4" x1="334.8" y1="334.8" x2="169.1" y2="169.1"/>
	<line class="st4" x1="265.4" y1="500" x2="32" y2="500"/>
	<line class="st4" x1="334.8" y1="665.2" x2="169.1" y2="830.9"/>
</g>
<g id="Layer_4" class="st0">
</g>
<g id="Moon">
	<path class="st5" d="M733.1,246.4c0,258.5-209.5,468-468,468c-155.8,0-293.7-76.1-378.8-193.1c66.5,60.9,155,98.1,252.3,98.1
		c206.3,0,373.5-167.2,373.5-373.5S344.9-127.6,138.6-127.6c-96.2,0-183.9,36.4-250.1,96.1c85.2-115.3,222.2-190.1,376.6-190.1
		C523.6-221.6,733.1-12,733.1,246.4z"/>
	<path class="st6" d="M968,500c0,258.5-209.5,468-468,468c-155.8,0-293.7-76.1-378.8-193.1c66.5,60.9,155,98.1,252.3,98.1
		C579.8,873,747,705.8,747,499.5S579.8,126,373.5,126c-96.2,0-183.9,36.4-250.1,96.1C208.6,106.8,345.6,32,500,32
		C758.5,32,968,241.5,968,500z"/>
	<path class="st5" d="M747,499.5C747,705.8,579.8,873,373.5,873c-97.3,0-185.8-37.2-252.3-98.1C65.1,697.7,32,602.7,32,500
		c0-104.1,34-200.2,91.4-277.9c66.2-59.7,153.9-96.1,250.1-96.1C579.8,126,747,293.2,747,499.5z"/>
	<path class="st7" d="M747,499.5C747,705.8,579.8,873,373.5,873c-97.3,0-185.8-37.2-252.3-98.1C46.7,706.6,0,608.5,0,499.5
		c0-110.1,47.6-209,123.4-277.4c66.2-59.7,153.9-96.1,250.1-96.1C579.8,126,747,293.2,747,499.5z"/>
</g>
<g id="Layer_7" class="st0">
</g>
<g id="Layer_6" class="st0">
</g>
<g id="Layer_5" class="st0">
	<path class="st8" d="M978.7,499.8c-1.7-18.2-2.5-43.1-4.7-60.8c-1.6-12.8-0.4-10.7-2-23c-2.3-17.3-6.8-30.8-11-45
		c-12.9-43.9-28.8-75.9-34-86c-11.2-22-30.8-56.2-62-93c-29.8-35.2-57.5-57.8-68-66c-8.3-6.5-36.7-28.4-79-50
		c-22.2-11.3-65.6-33.1-126-45c-15.1-3-84.2-15.8-173,0c-71.8,12.7-123.7,38.4-147,51c-17,9.2-52.6,29.8-91,64c0,0-39.1,34.8-65,71
		c-2.5,3.5-7.1,10.2-11,16c-5.2,7.7-19,28.3-18,29c0.7,0.5,7.9-9.3,23-25c0,0,5.4-5.6,12-12c30.8-29.8,76-54,76-54
		c40.3-21.5,75-30.7,89-34c13.9-3.3,57.7-12.8,115.2-8.5c52.3,4,91.2,17.5,106.8,23.5c23.8,9,61.1,26,100,57c37,29.4,59,58.5,66,68
		c22.1,30.2,33.7,56.3,41,73c0,0,25.5,58.4,30,108c1.4,15.5,1,34,1,34c0,1,0,4,0,8C824.2,500.1,901.7,499.5,978.7,499.8z"/>
	<path class="st8" d="M977.7,498.8c-77-0.3-154,0.4-231.2,0.3"/>
	<line class="st9" x1="500" y1="500" x2="1137" y2="500"/>
</g>
</svg>
