<?xml version="1.0" encoding="utf-8"?>
<!-- Generator: Adobe Illustrator 27.1.1, SVG Export Plug-In . SVG Version: 6.00 Build 0)  -->
<svg version="1.1" xmlns="http://www.w3.org/2000/svg" xmlns:xlink="http://www.w3.org/1999/xlink" x="0px" y="0px"
	 viewBox="0 0 1000 1000" style="enable-background:new 0 0 1000 1000;" xml:space="preserve">
<style type="text/css">
	.st0{display:none;}
	.st1{display:inline;}
	.st2{fill:none;stroke:#000000;stroke-width:2;stroke-miterlimit:10;}
	.st3{display:none;opacity:0.54;}
	.st4{stroke:#FFFFFF;stroke-width:20;stroke-miterlimit:10;}
	.st5{fill:none;stroke:#FFFFFF;stroke-width:20;stroke-miterlimit:10;}
	.st6{stroke:#000000;stroke-width:20;stroke-miterlimit:10;}
	.st7{display:inline;stroke:#000000;stroke-width:20;stroke-miterlimit:10;}
	.st8{fill:#FFFFFF;}
</style>
<g id="Layer_3" class="st0">
	<g class="st1">
		<rect class="st2" width="1010" height="1010"/>
		<line class="st2" x1="0" y1="841.7" x2="1010" y2="841.7"/>
		<line class="st2" x1="0" y1="673.3" x2="1010" y2="673.3"/>
		<line class="st2" x1="0" y1="505" x2="1010" y2="505"/>
		<line class="st2" x1="0" y1="336.7" x2="1010" y2="336.7"/>
		<line class="st2" x1="0" y1="168.3" x2="1010" y2="168.3"/>
		<line class="st2" x1="841.7" y1="0" x2="841.7" y2="1010"/>
		<line class="st2" x1="673.3" y1="0" x2="673.3" y2="1010"/>
		<line class="st2" x1="505" y1="0" x2="505" y2="1010"/>
		<line class="st2" x1="336.7" y1="0" x2="336.7" y2="1010"/>
		<line class="st2" x1="168.3" y1="0" x2="168.3" y2="1010"/>
	</g>
</g>
<g id="Sun">
	<rect class="st3" width="1000" height="1000"/>
	<g>
		<circle class="st4" cx="500" cy="500" r="208"/>
		<circle class="st4" cx="500" cy="500" r="104"/>
	</g>
	<line class="st5" x1="500" y1="726.5" x2="500" y2="968"/>
	<line class="st5" x1="665.2" y1="665.2" x2="830.9" y2="830.9"/>
	<line class="st5" x1="733.4" y1="500" x2="968" y2="500"/>
	<line class="st5" x1="665.2" y1="334.8" x2="830.9" y2="169.1"/>
	<line class="st5" x1="500" y1="265.4" x2="500" y2="32"/>
	<line class="st5" x1="334.8" y1="334.8" x2="169.1" y2="169.1"/>
	<line class="st5" x1="265.4" y1="500" x2="32" y2="500"/>
	<line class="st5" x1="334.8" y1="665.2" x2="169.1" y2="830.9"/>
</g>
<g id="Moon" class="st0">
	<path class="st6" d="M733.1,246.4c0,258.5-209.5,468-468,468c-155.8,0-293.7-76.1-378.8-193.1c66.5,60.9,155,98.1,252.3,98.1
		c206.3,0,373.5-167.2,373.5-373.5S344.9-127.6,138.6-127.6c-96.2,0-183.9,36.4-250.1,96.1c85.2-115.3,222.2-190.1,376.6-190.1
		C523.6-221.6,733.1-12,733.1,246.4z"/>
	<path class="st7" d="M968,500c0,258.5-209.5,468-468,468c-155.8,0-293.7-76.1-378.8-193.1c66.5,60.9,155,98.1,252.3,98.1
		C579.8,873,747,705.8,747,499.5S579.8,126,373.5,126c-96.2,0-183.9,36.4-250.1,96.1C208.6,106.8,345.6,32,500,32
		C758.5,32,968,241.5,968,500z"/>
	<path class="st6" d="M747,499.5C747,705.8,579.8,873,373.5,873c-97.3,0-185.8-37.2-252.3-98.1C65.1,697.7,32,602.7,32,500
		c0-104.1,34-200.2,91.4-277.9c66.2-59.7,153.9-96.1,250.1-96.1C579.8,126,747,293.2,747,499.5z"/>
	<path class="st8" d="M747,499.5C747,705.8,579.8,873,373.5,873c-97.3,0-185.8-37.2-252.3-98.1C46.7,706.6,0,608.5,0,499.5
		c0-110.1,47.6-209,123.4-277.4c66.2-59.7,153.9-96.1,250.1-96.1C579.8,126,747,293.2,747,499.5z"/>
</g>
</svg>
